# MagicaVoxel @ Ephtracy

# group
o 

# material
mtllib pingpongTable.mtl
usemtl palette

# normals
vn -1 0 0
vn 1 0 0
vn 0 0 1
vn 0 0 -1
vn 0 -1 0
vn 0 1 0

# texcoords
vt 0.798828 0.5
vt 0.912109 0.5
vt 0.958984 0.5
vt 0.962891 0.5
vt 0.994141 0.5

# verts
v 0 5.5 0
v 0 5.5 -7.5
v 0 5.6 0
v 0 5.6 -7.5
v 0 5.7 0
v 0 5.7 -7.5
v 0 5.8 0
v 0 5.8 -7.5
v 1.2 2 -1.3
v 1.2 2 -1.8
v 1.2 2 -5.7
v 1.2 2 -6.2
v 1.2 5.5 -1.3
v 1.2 5.5 -1.8
v 1.2 5.5 -5.7
v 1.2 5.5 -6.2
v 4 2 -1.3
v 4 2 -1.8
v 4 2 -5.7
v 4 2 -6.2
v 4 4 -1.4
v 4 4 -1.7
v 4 4 -5.8
v 4 4 -6.1
v 4 4.3 -1.4
v 4 4.3 -1.7
v 4 4.3 -5.8
v 4 4.3 -6.1
v 4 5.5 -1.3
v 4 5.5 -1.8
v 4 5.5 -5.7
v 4 5.5 -6.2
v 6.2 5.8 0
v 6.2 5.8 -0.1
v 6.2 5.8 -0.2
v 6.2 5.8 -7.3
v 6.2 5.8 -7.4
v 6.2 5.8 -7.5
v 6.2 6.6 0
v 6.2 6.6 -0.2
v 6.2 6.6 -7.3
v 6.2 6.6 -7.5
v 8.1 2 -1.3
v 8.1 2 -1.8
v 8.1 2 -5.7
v 8.1 2 -6.2
v 8.1 5.5 -1.3
v 8.1 5.5 -1.8
v 8.1 5.5 -5.7
v 8.1 5.5 -6.2
v 10.9 2 -1.3
v 10.9 2 -1.8
v 10.9 2 -5.7
v 10.9 2 -6.2
v 10.9 4 -1.4
v 10.9 4 -1.7
v 10.9 4 -5.8
v 10.9 4 -6.1
v 10.9 4.3 -1.4
v 10.9 4.3 -1.7
v 10.9 4.3 -5.8
v 10.9 4.3 -6.1
v 10.9 5.5 -1.3
v 10.9 5.5 -1.8
v 10.9 5.5 -5.7
v 10.9 5.5 -6.2
v 1.7 2 -1.3
v 1.7 2 -1.8
v 1.7 2 -5.7
v 1.7 2 -6.2
v 1.7 4 -1.4
v 1.7 4 -1.7
v 1.7 4 -5.8
v 1.7 4 -6.1
v 1.7 4.3 -1.4
v 1.7 4.3 -1.7
v 1.7 4.3 -5.8
v 1.7 4.3 -6.1
v 1.7 5.5 -1.3
v 1.7 5.5 -1.8
v 1.7 5.5 -5.7
v 1.7 5.5 -6.2
v 4.5 2 -1.3
v 4.5 2 -1.8
v 4.5 2 -5.7
v 4.5 2 -6.2
v 4.5 5.5 -1.3
v 4.5 5.5 -1.8
v 4.5 5.5 -5.7
v 4.5 5.5 -6.2
v 6.4 5.8 0
v 6.4 5.8 -0.1
v 6.4 5.8 -0.2
v 6.4 5.8 -7.3
v 6.4 5.8 -7.4
v 6.4 5.8 -7.5
v 6.4 6.6 0
v 6.4 6.6 -0.2
v 6.4 6.6 -7.3
v 6.4 6.6 -7.5
v 8.6 2 -1.3
v 8.6 2 -1.8
v 8.6 2 -5.7
v 8.6 2 -6.2
v 8.6 4 -1.4
v 8.6 4 -1.7
v 8.6 4 -5.8
v 8.6 4 -6.1
v 8.6 4.3 -1.4
v 8.6 4.3 -1.7
v 8.6 4.3 -5.8
v 8.6 4.3 -6.1
v 8.6 5.5 -1.3
v 8.6 5.5 -1.8
v 8.6 5.5 -5.7
v 8.6 5.5 -6.2
v 11.4 2 -1.3
v 11.4 2 -1.8
v 11.4 2 -5.7
v 11.4 2 -6.2
v 11.4 5.5 -1.3
v 11.4 5.5 -1.8
v 11.4 5.5 -5.7
v 11.4 5.5 -6.2
v 12.6 5.5 0
v 12.6 5.5 -7.5
v 12.6 5.6 0
v 12.6 5.6 -7.5
v 12.6 5.7 0
v 12.6 5.7 -7.5
v 12.6 5.8 0
v 12.6 5.8 -7.5
v 0 5.5 0
v 0 5.6 0
v 0 5.7 0
v 0 5.8 0
v 6.2 5.6 0
v 6.2 5.7 0
v 6.2 5.8 0
v 6.2 6.6 0
v 6.4 5.6 0
v 6.4 5.7 0
v 6.4 5.8 0
v 6.4 6.6 0
v 12.6 5.5 0
v 12.6 5.6 0
v 12.6 5.7 0
v 12.6 5.8 0
v 1.2 2 -1.3
v 1.2 5.5 -1.3
v 1.7 2 -1.3
v 1.7 5.5 -1.3
v 4 2 -1.3
v 4 5.5 -1.3
v 4.5 2 -1.3
v 4.5 5.5 -1.3
v 8.1 2 -1.3
v 8.1 5.5 -1.3
v 8.6 2 -1.3
v 8.6 5.5 -1.3
v 10.9 2 -1.3
v 10.9 5.5 -1.3
v 11.4 2 -1.3
v 11.4 5.5 -1.3
v 1.7 4 -1.4
v 1.7 4.3 -1.4
v 4 4 -1.4
v 4 4.3 -1.4
v 8.6 4 -1.4
v 8.6 4.3 -1.4
v 10.9 4 -1.4
v 10.9 4.3 -1.4
v 1.2 2 -5.7
v 1.2 5.5 -5.7
v 1.7 2 -5.7
v 1.7 5.5 -5.7
v 4 2 -5.7
v 4 5.5 -5.7
v 4.5 2 -5.7
v 4.5 5.5 -5.7
v 8.1 2 -5.7
v 8.1 5.5 -5.7
v 8.6 2 -5.7
v 8.6 5.5 -5.7
v 10.9 2 -5.7
v 10.9 5.5 -5.7
v 11.4 2 -5.7
v 11.4 5.5 -5.7
v 1.7 4 -5.8
v 1.7 4.3 -5.8
v 4 4 -5.8
v 4 4.3 -5.8
v 8.6 4 -5.8
v 8.6 4.3 -5.8
v 10.9 4 -5.8
v 10.9 4.3 -5.8
v 6.2 5.8 -7.3
v 6.2 6.6 -7.3
v 6.4 5.8 -7.3
v 6.4 6.6 -7.3
v 6.2 5.8 -0.2
v 6.2 6.6 -0.2
v 6.4 5.8 -0.2
v 6.4 6.6 -0.2
v 1.7 4 -1.7
v 1.7 4.3 -1.7
v 4 4 -1.7
v 4 4.3 -1.7
v 8.6 4 -1.7
v 8.6 4.3 -1.7
v 10.9 4 -1.7
v 10.9 4.3 -1.7
v 1.2 2 -1.8
v 1.2 5.5 -1.8
v 1.7 2 -1.8
v 1.7 5.5 -1.8
v 4 2 -1.8
v 4 5.5 -1.8
v 4.5 2 -1.8
v 4.5 5.5 -1.8
v 8.1 2 -1.8
v 8.1 5.5 -1.8
v 8.6 2 -1.8
v 8.6 5.5 -1.8
v 10.9 2 -1.8
v 10.9 5.5 -1.8
v 11.4 2 -1.8
v 11.4 5.5 -1.8
v 1.7 4 -6.1
v 1.7 4.3 -6.1
v 4 4 -6.1
v 4 4.3 -6.1
v 8.6 4 -6.1
v 8.6 4.3 -6.1
v 10.9 4 -6.1
v 10.9 4.3 -6.1
v 1.2 2 -6.2
v 1.2 5.5 -6.2
v 1.7 2 -6.2
v 1.7 5.5 -6.2
v 4 2 -6.2
v 4 5.5 -6.2
v 4.5 2 -6.2
v 4.5 5.5 -6.2
v 8.1 2 -6.2
v 8.1 5.5 -6.2
v 8.6 2 -6.2
v 8.6 5.5 -6.2
v 10.9 2 -6.2
v 10.9 5.5 -6.2
v 11.4 2 -6.2
v 11.4 5.5 -6.2
v 0 5.5 -7.5
v 0 5.6 -7.5
v 0 5.7 -7.5
v 0 5.8 -7.5
v 6.2 5.6 -7.5
v 6.2 5.7 -7.5
v 6.2 5.8 -7.5
v 6.2 6.6 -7.5
v 6.4 5.6 -7.5
v 6.4 5.7 -7.5
v 6.4 5.8 -7.5
v 6.4 6.6 -7.5
v 12.6 5.5 -7.5
v 12.6 5.6 -7.5
v 12.6 5.7 -7.5
v 12.6 5.8 -7.5
v 1.2 2 -1.3
v 1.7 2 -1.3
v 4 2 -1.3
v 4.5 2 -1.3
v 8.1 2 -1.3
v 8.6 2 -1.3
v 10.9 2 -1.3
v 11.4 2 -1.3
v 1.3 2 -1.4
v 1.6 2 -1.4
v 11 2 -1.4
v 11.3 2 -1.4
v 1.3 2 -1.7
v 1.6 2 -1.7
v 11 2 -1.7
v 11.3 2 -1.7
v 1.2 2 -1.8
v 1.7 2 -1.8
v 4 2 -1.8
v 4.5 2 -1.8
v 8.1 2 -1.8
v 8.6 2 -1.8
v 10.9 2 -1.8
v 11.4 2 -1.8
v 1.2 2 -5.7
v 1.7 2 -5.7
v 4 2 -5.7
v 4.5 2 -5.7
v 8.1 2 -5.7
v 8.6 2 -5.7
v 10.9 2 -5.7
v 11.4 2 -5.7
v 1.3 2 -5.8
v 1.6 2 -5.8
v 11 2 -5.8
v 11.3 2 -5.8
v 1.3 2 -6.1
v 1.6 2 -6.1
v 11 2 -6.1
v 11.3 2 -6.1
v 1.2 2 -6.2
v 1.7 2 -6.2
v 4 2 -6.2
v 4.5 2 -6.2
v 8.1 2 -6.2
v 8.6 2 -6.2
v 10.9 2 -6.2
v 11.4 2 -6.2
v 1.7 4 -1.4
v 4 4 -1.4
v 8.6 4 -1.4
v 10.9 4 -1.4
v 1.7 4 -1.7
v 4 4 -1.7
v 8.6 4 -1.7
v 10.9 4 -1.7
v 1.7 4 -5.8
v 4 4 -5.8
v 8.6 4 -5.8
v 10.9 4 -5.8
v 1.7 4 -6.1
v 4 4 -6.1
v 8.6 4 -6.1
v 10.9 4 -6.1
v 0 5.5 0
v 12.6 5.5 0
v 1.2 5.5 -1.3
v 1.7 5.5 -1.3
v 4 5.5 -1.3
v 4.5 5.5 -1.3
v 8.1 5.5 -1.3
v 8.6 5.5 -1.3
v 10.9 5.5 -1.3
v 11.4 5.5 -1.3
v 1.2 5.5 -1.8
v 1.7 5.5 -1.8
v 4 5.5 -1.8
v 4.5 5.5 -1.8
v 8.1 5.5 -1.8
v 8.6 5.5 -1.8
v 10.9 5.5 -1.8
v 11.4 5.5 -1.8
v 1.2 5.5 -5.7
v 1.7 5.5 -5.7
v 4 5.5 -5.7
v 4.5 5.5 -5.7
v 8.1 5.5 -5.7
v 8.6 5.5 -5.7
v 10.9 5.5 -5.7
v 11.4 5.5 -5.7
v 1.2 5.5 -6.2
v 1.7 5.5 -6.2
v 4 5.5 -6.2
v 4.5 5.5 -6.2
v 8.1 5.5 -6.2
v 8.6 5.5 -6.2
v 10.9 5.5 -6.2
v 11.4 5.5 -6.2
v 0 5.5 -7.5
v 12.6 5.5 -7.5
v 1.7 4.3 -1.4
v 4 4.3 -1.4
v 8.6 4.3 -1.4
v 10.9 4.3 -1.4
v 1.7 4.3 -1.7
v 4 4.3 -1.7
v 8.6 4.3 -1.7
v 10.9 4.3 -1.7
v 1.7 4.3 -5.8
v 4 4.3 -5.8
v 8.6 4.3 -5.8
v 10.9 4.3 -5.8
v 1.7 4.3 -6.1
v 4 4.3 -6.1
v 8.6 4.3 -6.1
v 10.9 4.3 -6.1
v 0 5.8 0
v 6.2 5.8 0
v 6.4 5.8 0
v 12.6 5.8 0
v 0.1 5.8 -0.1
v 6.2 5.8 -0.1
v 6.4 5.8 -0.1
v 12.5 5.8 -0.1
v 6.2 5.8 -0.2
v 6.4 5.8 -0.2
v 0.1 5.8 -3.7
v 12.5 5.8 -3.7
v 0.1 5.8 -3.8
v 12.5 5.8 -3.8
v 6.2 5.8 -7.3
v 6.4 5.8 -7.3
v 0.1 5.8 -7.4
v 6.2 5.8 -7.4
v 6.4 5.8 -7.4
v 12.5 5.8 -7.4
v 0 5.8 -7.5
v 6.2 5.8 -7.5
v 6.4 5.8 -7.5
v 12.6 5.8 -7.5
v 6.2 6.6 0
v 6.4 6.6 0
v 6.2 6.6 -0.2
v 6.4 6.6 -0.2
v 6.2 6.6 -7.3
v 6.4 6.6 -7.3
v 6.2 6.6 -7.5
v 6.4 6.6 -7.5

# faces
f 3/5/1 2/5/1 1/5/1
f 4/5/1 2/5/1 3/5/1
f 5/1/1 4/1/1 3/1/1
f 6/1/1 4/1/1 5/1/1
f 7/2/1 6/2/1 5/2/1
f 8/2/1 6/2/1 7/2/1
f 13/5/1 10/5/1 9/5/1
f 14/5/1 10/5/1 13/5/1
f 15/5/1 12/5/1 11/5/1
f 16/5/1 12/5/1 15/5/1
f 21/5/1 18/5/1 17/5/1
f 22/5/1 18/5/1 21/5/1
f 23/5/1 20/5/1 19/5/1
f 24/5/1 20/5/1 23/5/1
f 25/5/1 21/5/1 17/5/1
f 26/5/1 18/5/1 22/5/1
f 27/5/1 23/5/1 19/5/1
f 28/5/1 20/5/1 24/5/1
f 29/5/1 25/5/1 17/5/1
f 29/5/1 26/5/1 25/5/1
f 30/5/1 18/5/1 26/5/1
f 30/5/1 26/5/1 29/5/1
f 31/5/1 28/5/1 27/5/1
f 31/5/1 27/5/1 19/5/1
f 32/5/1 20/5/1 28/5/1
f 32/5/1 28/5/1 31/5/1
f 39/5/1 34/5/1 33/5/1
f 39/5/1 35/5/1 34/5/1
f 40/5/1 35/5/1 39/5/1
f 41/5/1 38/5/1 37/5/1
f 41/5/1 37/5/1 36/5/1
f 42/5/1 38/5/1 41/5/1
f 47/5/1 44/5/1 43/5/1
f 48/5/1 44/5/1 47/5/1
f 49/5/1 46/5/1 45/5/1
f 50/5/1 46/5/1 49/5/1
f 55/5/1 52/5/1 51/5/1
f 56/5/1 52/5/1 55/5/1
f 57/5/1 54/5/1 53/5/1
f 58/5/1 54/5/1 57/5/1
f 59/5/1 55/5/1 51/5/1
f 60/5/1 52/5/1 56/5/1
f 61/5/1 57/5/1 53/5/1
f 62/5/1 54/5/1 58/5/1
f 63/5/1 59/5/1 51/5/1
f 63/5/1 60/5/1 59/5/1
f 64/5/1 52/5/1 60/5/1
f 64/5/1 60/5/1 63/5/1
f 65/5/1 62/5/1 61/5/1
f 65/5/1 61/5/1 53/5/1
f 66/5/1 54/5/1 62/5/1
f 66/5/1 62/5/1 65/5/1
f 67/5/2 68/5/2 71/5/2
f 71/5/2 68/5/2 72/5/2
f 69/5/2 70/5/2 73/5/2
f 73/5/2 70/5/2 74/5/2
f 67/5/2 71/5/2 75/5/2
f 72/5/2 68/5/2 76/5/2
f 69/5/2 73/5/2 77/5/2
f 74/5/2 70/5/2 78/5/2
f 67/5/2 75/5/2 79/5/2
f 75/5/2 76/5/2 79/5/2
f 76/5/2 68/5/2 80/5/2
f 79/5/2 76/5/2 80/5/2
f 77/5/2 78/5/2 81/5/2
f 69/5/2 77/5/2 81/5/2
f 78/5/2 70/5/2 82/5/2
f 81/5/2 78/5/2 82/5/2
f 83/5/2 84/5/2 87/5/2
f 87/5/2 84/5/2 88/5/2
f 85/5/2 86/5/2 89/5/2
f 89/5/2 86/5/2 90/5/2
f 91/5/2 92/5/2 97/5/2
f 92/5/2 93/5/2 97/5/2
f 97/5/2 93/5/2 98/5/2
f 95/5/2 96/5/2 99/5/2
f 94/5/2 95/5/2 99/5/2
f 99/5/2 96/5/2 100/5/2
f 101/5/2 102/5/2 105/5/2
f 105/5/2 102/5/2 106/5/2
f 103/5/2 104/5/2 107/5/2
f 107/5/2 104/5/2 108/5/2
f 101/5/2 105/5/2 109/5/2
f 106/5/2 102/5/2 110/5/2
f 103/5/2 107/5/2 111/5/2
f 108/5/2 104/5/2 112/5/2
f 101/5/2 109/5/2 113/5/2
f 109/5/2 110/5/2 113/5/2
f 110/5/2 102/5/2 114/5/2
f 113/5/2 110/5/2 114/5/2
f 111/5/2 112/5/2 115/5/2
f 103/5/2 111/5/2 115/5/2
f 112/5/2 104/5/2 116/5/2
f 115/5/2 112/5/2 116/5/2
f 117/5/2 118/5/2 121/5/2
f 121/5/2 118/5/2 122/5/2
f 119/5/2 120/5/2 123/5/2
f 123/5/2 120/5/2 124/5/2
f 125/5/2 126/5/2 127/5/2
f 127/5/2 126/5/2 128/5/2
f 127/1/2 128/1/2 129/1/2
f 129/1/2 128/1/2 130/1/2
f 129/2/2 130/2/2 131/2/2
f 131/2/2 130/2/2 132/2/2
f 137/5/3 134/5/3 133/5/3
f 137/1/3 135/1/3 134/1/3
f 138/2/3 136/2/3 135/2/3
f 138/1/3 135/1/3 137/1/3
f 139/2/3 136/2/3 138/2/3
f 141/5/3 137/5/3 133/5/3
f 141/5/3 140/5/3 139/5/3
f 141/5/3 139/5/3 138/5/3
f 141/5/3 138/5/3 137/5/3
f 142/5/3 140/5/3 141/5/3
f 143/5/3 140/5/3 142/5/3
f 144/5/3 140/5/3 143/5/3
f 145/5/3 141/5/3 133/5/3
f 146/1/3 142/1/3 141/1/3
f 146/5/3 141/5/3 145/5/3
f 147/2/3 143/2/3 142/2/3
f 147/1/3 142/1/3 146/1/3
f 148/2/3 143/2/3 147/2/3
f 151/5/3 150/5/3 149/5/3
f 152/5/3 150/5/3 151/5/3
f 155/5/3 154/5/3 153/5/3
f 156/5/3 154/5/3 155/5/3
f 159/5/3 158/5/3 157/5/3
f 160/5/3 158/5/3 159/5/3
f 163/5/3 162/5/3 161/5/3
f 164/5/3 162/5/3 163/5/3
f 167/5/3 166/5/3 165/5/3
f 168/5/3 166/5/3 167/5/3
f 171/5/3 170/5/3 169/5/3
f 172/5/3 170/5/3 171/5/3
f 175/5/3 174/5/3 173/5/3
f 176/5/3 174/5/3 175/5/3
f 179/5/3 178/5/3 177/5/3
f 180/5/3 178/5/3 179/5/3
f 183/5/3 182/5/3 181/5/3
f 184/5/3 182/5/3 183/5/3
f 187/5/3 186/5/3 185/5/3
f 188/5/3 186/5/3 187/5/3
f 191/5/3 190/5/3 189/5/3
f 192/5/3 190/5/3 191/5/3
f 195/5/3 194/5/3 193/5/3
f 196/5/3 194/5/3 195/5/3
f 199/5/3 198/5/3 197/5/3
f 200/5/3 198/5/3 199/5/3
f 201/5/4 202/5/4 203/5/4
f 203/5/4 202/5/4 204/5/4
f 205/5/4 206/5/4 207/5/4
f 207/5/4 206/5/4 208/5/4
f 209/5/4 210/5/4 211/5/4
f 211/5/4 210/5/4 212/5/4
f 213/5/4 214/5/4 215/5/4
f 215/5/4 214/5/4 216/5/4
f 217/5/4 218/5/4 219/5/4
f 219/5/4 218/5/4 220/5/4
f 221/5/4 222/5/4 223/5/4
f 223/5/4 222/5/4 224/5/4
f 225/5/4 226/5/4 227/5/4
f 227/5/4 226/5/4 228/5/4
f 229/5/4 230/5/4 231/5/4
f 231/5/4 230/5/4 232/5/4
f 233/5/4 234/5/4 235/5/4
f 235/5/4 234/5/4 236/5/4
f 237/5/4 238/5/4 239/5/4
f 239/5/4 238/5/4 240/5/4
f 241/5/4 242/5/4 243/5/4
f 243/5/4 242/5/4 244/5/4
f 245/5/4 246/5/4 247/5/4
f 247/5/4 246/5/4 248/5/4
f 249/5/4 250/5/4 251/5/4
f 251/5/4 250/5/4 252/5/4
f 253/5/4 254/5/4 257/5/4
f 254/1/4 255/1/4 257/1/4
f 255/2/4 256/2/4 258/2/4
f 257/1/4 255/1/4 258/1/4
f 258/2/4 256/2/4 259/2/4
f 253/5/4 257/5/4 261/5/4
f 259/5/4 260/5/4 261/5/4
f 258/5/4 259/5/4 261/5/4
f 257/5/4 258/5/4 261/5/4
f 261/5/4 260/5/4 262/5/4
f 262/5/4 260/5/4 263/5/4
f 263/5/4 260/5/4 264/5/4
f 253/5/4 261/5/4 265/5/4
f 261/1/4 262/1/4 266/1/4
f 265/5/4 261/5/4 266/5/4
f 262/2/4 263/2/4 267/2/4
f 266/1/4 262/1/4 267/1/4
f 267/2/4 263/2/4 268/2/4
f 277/5/5 270/5/5 269/5/5
f 278/5/5 270/5/5 277/5/5
f 279/5/5 276/5/5 275/5/5
f 280/5/5 276/5/5 279/5/5
f 281/5/5 277/5/5 269/5/5
f 281/3/5 278/3/5 277/3/5
f 282/5/5 270/5/5 278/5/5
f 282/3/5 278/3/5 281/3/5
f 283/3/5 280/3/5 279/3/5
f 283/5/5 279/5/5 275/5/5
f 284/5/5 276/5/5 280/5/5
f 284/3/5 280/3/5 283/3/5
f 285/5/5 281/5/5 269/5/5
f 285/5/5 282/5/5 281/5/5
f 286/5/5 270/5/5 282/5/5
f 286/5/5 282/5/5 285/5/5
f 287/5/5 272/5/5 271/5/5
f 288/5/5 272/5/5 287/5/5
f 289/5/5 274/5/5 273/5/5
f 290/5/5 274/5/5 289/5/5
f 291/5/5 283/5/5 275/5/5
f 291/5/5 284/5/5 283/5/5
f 292/5/5 276/5/5 284/5/5
f 292/5/5 284/5/5 291/5/5
f 301/5/5 294/5/5 293/5/5
f 302/5/5 294/5/5 301/5/5
f 303/5/5 300/5/5 299/5/5
f 304/5/5 300/5/5 303/5/5
f 305/5/5 301/5/5 293/5/5
f 305/3/5 302/3/5 301/3/5
f 306/5/5 294/5/5 302/5/5
f 306/3/5 302/3/5 305/3/5
f 307/3/5 304/3/5 303/3/5
f 307/5/5 303/5/5 299/5/5
f 308/5/5 300/5/5 304/5/5
f 308/3/5 304/3/5 307/3/5
f 309/5/5 305/5/5 293/5/5
f 309/5/5 306/5/5 305/5/5
f 310/5/5 294/5/5 306/5/5
f 310/5/5 306/5/5 309/5/5
f 311/5/5 296/5/5 295/5/5
f 312/5/5 296/5/5 311/5/5
f 313/5/5 298/5/5 297/5/5
f 314/5/5 298/5/5 313/5/5
f 315/5/5 307/5/5 299/5/5
f 315/5/5 308/5/5 307/5/5
f 316/5/5 300/5/5 308/5/5
f 316/5/5 308/5/5 315/5/5
f 321/5/5 318/5/5 317/5/5
f 322/5/5 318/5/5 321/5/5
f 323/5/5 320/5/5 319/5/5
f 324/5/5 320/5/5 323/5/5
f 329/5/5 326/5/5 325/5/5
f 330/5/5 326/5/5 329/5/5
f 331/5/5 328/5/5 327/5/5
f 332/5/5 328/5/5 331/5/5
f 335/5/5 334/5/5 333/5/5
f 336/5/5 334/5/5 335/5/5
f 337/5/5 334/5/5 336/5/5
f 338/5/5 334/5/5 337/5/5
f 339/5/5 334/5/5 338/5/5
f 340/5/5 334/5/5 339/5/5
f 341/5/5 334/5/5 340/5/5
f 342/5/5 334/5/5 341/5/5
f 343/5/5 335/5/5 333/5/5
f 344/5/5 337/5/5 336/5/5
f 345/5/5 337/5/5 344/5/5
f 346/5/5 339/5/5 338/5/5
f 347/5/5 339/5/5 346/5/5
f 348/5/5 341/5/5 340/5/5
f 349/5/5 341/5/5 348/5/5
f 350/5/5 334/5/5 342/5/5
f 351/5/5 349/5/5 348/5/5
f 351/5/5 350/5/5 349/5/5
f 351/5/5 347/5/5 346/5/5
f 351/5/5 343/5/5 333/5/5
f 351/5/5 348/5/5 347/5/5
f 351/5/5 345/5/5 344/5/5
f 351/5/5 346/5/5 345/5/5
f 351/5/5 344/5/5 343/5/5
f 352/5/5 350/5/5 351/5/5
f 353/5/5 350/5/5 352/5/5
f 354/5/5 350/5/5 353/5/5
f 355/5/5 350/5/5 354/5/5
f 356/5/5 350/5/5 355/5/5
f 357/5/5 350/5/5 356/5/5
f 358/5/5 334/5/5 350/5/5
f 358/5/5 350/5/5 357/5/5
f 359/5/5 351/5/5 333/5/5
f 360/5/5 353/5/5 352/5/5
f 361/5/5 353/5/5 360/5/5
f 362/5/5 355/5/5 354/5/5
f 363/5/5 355/5/5 362/5/5
f 364/5/5 357/5/5 356/5/5
f 365/5/5 357/5/5 364/5/5
f 366/5/5 334/5/5 358/5/5
f 367/5/5 363/5/5 362/5/5
f 367/5/5 366/5/5 365/5/5
f 367/5/5 365/5/5 364/5/5
f 367/5/5 361/5/5 360/5/5
f 367/5/5 364/5/5 363/5/5
f 367/5/5 359/5/5 333/5/5
f 367/5/5 362/5/5 361/5/5
f 367/5/5 360/5/5 359/5/5
f 368/5/5 334/5/5 366/5/5
f 368/5/5 366/5/5 367/5/5
f 369/5/6 370/5/6 373/5/6
f 373/5/6 370/5/6 374/5/6
f 371/5/6 372/5/6 375/5/6
f 375/5/6 372/5/6 376/5/6
f 377/5/6 378/5/6 381/5/6
f 381/5/6 378/5/6 382/5/6
f 379/5/6 380/5/6 383/5/6
f 383/5/6 380/5/6 384/5/6
f 385/2/6 386/2/6 389/2/6
f 389/2/6 386/2/6 390/2/6
f 387/2/6 388/2/6 391/2/6
f 391/2/6 388/2/6 392/2/6
f 389/1/6 390/1/6 393/1/6
f 391/1/6 392/1/6 394/1/6
f 385/2/6 389/2/6 395/2/6
f 393/1/6 394/1/6 395/1/6
f 389/1/6 393/1/6 395/1/6
f 392/2/6 388/2/6 396/2/6
f 395/1/6 394/1/6 396/1/6
f 394/1/6 392/1/6 396/1/6
f 385/2/6 395/2/6 397/2/6
f 395/2/6 396/2/6 397/2/6
f 396/2/6 388/2/6 398/2/6
f 397/2/6 396/2/6 398/2/6
f 397/1/6 398/1/6 399/1/6
f 399/1/6 398/1/6 400/1/6
f 385/2/6 397/2/6 401/2/6
f 397/1/6 399/1/6 401/1/6
f 401/1/6 399/1/6 402/1/6
f 400/1/6 398/1/6 403/1/6
f 398/2/6 388/2/6 404/2/6
f 403/1/6 398/1/6 404/1/6
f 401/2/6 402/2/6 405/2/6
f 385/2/6 401/2/6 405/2/6
f 405/2/6 402/2/6 406/2/6
f 403/2/6 404/2/6 407/2/6
f 404/2/6 388/2/6 408/2/6
f 407/2/6 404/2/6 408/2/6
f 409/5/6 410/5/6 411/5/6
f 411/5/6 410/5/6 412/5/6
f 413/5/6 414/5/6 415/5/6
f 415/5/6 414/5/6 416/5/6
